<?xml version="1.0" encoding="UTF-8" standalone="no"?><!DOCTYPE svg PUBLIC "-//W3C//DTD SVG 1.1//EN" "http://www.w3.org/Graphics/SVG/1.1/DTD/svg11.dtd"><svg width="100%" height="100%" viewBox="0 0 2917 2917" version="1.1" xmlns="http://www.w3.org/2000/svg" xmlns:xlink="http://www.w3.org/1999/xlink" xml:space="preserve" xmlns:serif="http://www.serif.com/" style="fill-rule:evenodd;clip-rule:evenodd;stroke-linejoin:round;stroke-miterlimit:2;"><g id="Layer_1-2"><g><path d="M1573.38,1339.17c-289.083,-0 -523.792,-234.709 -523.792,-523.75c0,-289.042 234.709,-523.75 523.792,-523.75l171.417,-0c52.583,-0 95.208,42.666 95.208,95.208c0,52.583 -42.667,95.208 -95.208,95.208l-171.417,0c-183.917,0 -333.292,149.334 -333.292,333.292c0,183.958 149.375,333.292 333.292,333.292l571.375,-0c52.542,-0 95.208,42.666 95.208,95.208c0,52.583 -42.666,95.208 -95.208,95.208l-571.333,0l-0.042,0.084Zm580.875,-638c289.083,-0 523.75,234.708 523.75,523.75c0,289.041 -234.667,523.75 -523.75,523.75l-171.375,-0c-52.583,-0 -95.208,-42.667 -95.25,-95.209c0,-52.583 42.708,-95.208 95.208,-95.208l171.417,0c183.917,0 333.292,-149.333 333.292,-333.292c-0,-183.958 -149.334,-333.291 -333.292,-333.291l-571.375,-0c-52.542,-0 -95.208,-42.667 -95.208,-95.209c-0,-52.583 42.708,-95.208 95.208,-95.208l571.375,-0l0,-0.083Z" style="fill:url(#_Linear1);fill-rule:nonzero;"/><path d="M759.167,2215.29c-289.042,-0 -523.75,-234.709 -523.75,-523.75c-0,-289.042 234.708,-523.75 523.75,-523.75l171.416,-0c52.584,-0 95.209,42.666 95.209,95.208c-0,52.542 -42.667,95.208 -95.209,95.208l-171.416,0c-183.959,0 -333.292,149.334 -333.292,333.292c-0,183.958 149.333,333.292 333.292,333.292l571.375,-0c52.583,-0 95.208,42.666 95.208,95.208c0,52.542 -42.667,95.208 -95.208,95.208l-571.375,0l-0,0.084Zm580.916,-638.042c289.042,0 523.75,234.708 523.75,523.75c0,289.042 -234.708,523.75 -523.75,523.75l-171.416,0c-52.584,0 -95.209,-42.667 -95.209,-95.208c0,-52.542 42.667,-95.209 95.209,-95.209l171.416,0c183.959,0 333.292,-149.333 333.292,-333.291c0,-183.959 -149.333,-333.292 -333.292,-333.292l-571.375,0c-52.583,0 -95.208,-42.667 -95.208,-95.208c0,-52.542 42.667,-95.209 95.208,-95.209l571.375,0l0,-0.083Z" style="fill:url(#_Linear2);fill-rule:nonzero;"/></g></g><defs><linearGradient id="_Linear1" x1="0" y1="0" x2="1" y2="0" gradientUnits="userSpaceOnUse" gradientTransform="matrix(1140.18,1151.89,-1151.89,1140.18,1111.94,523.058)"><stop offset="0" style="stop-color:#b63fa6;stop-opacity:1"/><stop offset="1" style="stop-color:#ffb84b;stop-opacity:1"/></linearGradient><linearGradient id="_Linear2" x1="0" y1="0" x2="1" y2="0" gradientUnits="userSpaceOnUse" gradientTransform="matrix(847.413,858.421,-858.421,847.413,607.535,1435.67)"><stop offset="0" style="stop-color:#4975d6;stop-opacity:1"/><stop offset="1" style="stop-color:#79b853;stop-opacity:1"/></linearGradient></defs></svg>