<?xml version="1.0" encoding="UTF-8" standalone="no"?><!DOCTYPE svg PUBLIC "-//W3C//DTD SVG 1.1//EN" "http://www.w3.org/Graphics/SVG/1.1/DTD/svg11.dtd"><svg width="100%" height="100%" viewBox="0 0 12155 12155" version="1.1" xmlns="http://www.w3.org/2000/svg" xmlns:xlink="http://www.w3.org/1999/xlink" xml:space="preserve" xmlns:serif="http://www.serif.com/" style="fill-rule:evenodd;clip-rule:evenodd;stroke-linejoin:round;stroke-miterlimit:2;"><g id="Layer_1-2"><g><path d="M6555.75,5579.88c-1204.51,0 -2182.47,-977.954 -2182.47,-2182.29c0,-1204.34 977.955,-2182.29 2182.47,-2182.29l714.238,-0c219.095,-0 396.7,177.775 396.7,396.7c-0,219.096 -177.78,396.7 -396.7,396.7l-714.238,-0c-766.321,-0 -1388.72,622.225 -1388.72,1388.72c0,766.492 622.396,1388.72 1388.72,1388.72l2380.73,0c218.925,0 396.7,177.775 396.7,396.7c0,219.096 -177.775,396.7 -396.7,396.7l-2380.55,0l-0.175,0.35Zm2420.31,-2658.33c1204.51,-0 2182.29,977.95 2182.29,2182.29c0,1204.34 -977.779,2182.29 -2182.29,2182.29l-714.063,0c-219.096,0 -396.7,-177.779 -396.875,-396.704c0,-219.096 177.95,-396.7 396.7,-396.7l714.238,-0c766.32,-0 1388.72,-622.221 1388.72,-1388.72c0,-766.492 -622.225,-1388.71 -1388.72,-1388.71l-2380.73,-0c-218.925,-0 -396.7,-177.78 -396.7,-396.705c0,-219.095 177.95,-396.7 396.7,-396.7l2380.73,0l-0,-0.345Z" style="fill:#fff;fill-rule:nonzero;"/><path d="M3163.2,9230.38c-1204.34,0 -2182.29,-977.954 -2182.29,-2182.29c0,-1204.34 977.95,-2182.29 2182.29,-2182.29l714.233,-0c219.1,-0 396.704,177.775 396.704,396.7c0,218.925 -177.779,396.7 -396.704,396.7l-714.233,-0c-766.496,-0 -1388.72,622.225 -1388.72,1388.72c0,766.492 622.221,1388.72 1388.72,1388.72l2380.73,0c219.096,0 396.7,177.775 396.7,396.7c0,218.925 -177.779,396.7 -396.7,396.7l-2380.73,0l-0,0.35Zm2420.48,-2658.51c1204.34,-0 2182.29,977.95 2182.29,2182.29c-0,1204.34 -977.95,2182.29 -2182.29,2182.29l-714.233,-0c-219.1,-0 -396.704,-177.779 -396.704,-396.7c-0,-218.925 177.779,-396.704 396.704,-396.704l714.233,-0c766.496,-0 1388.72,-622.221 1388.72,-1388.71c-0,-766.496 -622.221,-1388.72 -1388.72,-1388.72l-2380.73,-0c-219.096,-0 -396.7,-177.78 -396.7,-396.7c0,-218.925 177.779,-396.705 396.7,-396.705l2380.73,0l0,-0.345Z" style="fill:#fff;fill-rule:nonzero;"/></g></g></svg>